<svg width="153" height="31" viewBox="0 0 153 31" fill="none" xmlns="http://www.w3.org/2000/svg">
<path d="M10.46 30.42C8.42 30.42 6.66 29.97 5.18 29.07C3.72 28.17 2.6 26.91 1.82 25.29C1.04 23.67 0.65 21.77 0.65 19.59C0.65 17.27 1.07 15.24 1.91 13.5C2.77 11.74 3.96 10.37 5.48 9.39C7 8.41 8.74 7.92 10.7 7.92C12.26 7.92 13.68 8.24 14.96 8.88C16.26 9.5 17.31 10.37 18.11 11.49C18.01 11.85 17.75 12.22 17.33 12.6C16.93 12.98 16.53 13.23 16.13 13.35C15.41 12.41 14.59 11.72 13.67 11.28C12.75 10.84 11.76 10.62 10.7 10.62C9.28 10.62 8.03 10.99 6.95 11.73C5.87 12.47 5.03 13.5 4.43 14.82C3.83 16.14 3.53 17.68 3.53 19.44C3.53 21.1 3.8 22.55 4.34 23.79C4.9 25.03 5.71 26 6.77 26.7C7.85 27.38 9.16 27.72 10.7 27.72C12.04 27.72 13.2 27.45 14.18 26.91C15.16 26.37 16.05 25.61 16.85 24.63C17.23 24.75 17.62 24.97 18.02 25.29C18.42 25.61 18.7 25.93 18.86 26.25C17.94 27.61 16.75 28.65 15.29 29.37C13.85 30.07 12.24 30.42 10.46 30.42ZM27.5206 30.42C26.1606 30.42 24.9406 30.1 23.8606 29.46C22.8006 28.8 21.9606 27.9 21.3406 26.76C20.7406 25.62 20.4406 24.33 20.4406 22.89C20.4406 21.45 20.7506 20.17 21.3706 19.05C21.9906 17.93 22.8306 17.05 23.8906 16.41C24.9706 15.75 26.1806 15.42 27.5206 15.42C28.8606 15.42 30.0606 15.75 31.1206 16.41C32.1806 17.05 33.0106 17.93 33.6106 19.05C34.2306 20.17 34.5406 21.45 34.5406 22.89C34.5406 24.33 34.2306 25.62 33.6106 26.76C33.0106 27.9 32.1806 28.8 31.1206 29.46C30.0806 30.1 28.8806 30.42 27.5206 30.42ZM27.4906 27.84C28.7706 27.84 29.7906 27.39 30.5506 26.49C31.3306 25.59 31.7206 24.39 31.7206 22.89C31.7206 22.15 31.6106 21.47 31.3906 20.85C30.1906 20.81 29.1006 20.57 28.1206 20.13C27.1606 19.69 26.4006 19.09 25.8406 18.33C25.0406 18.67 24.4106 19.25 23.9506 20.07C23.4906 20.87 23.2606 21.83 23.2606 22.95C23.2606 24.41 23.6406 25.59 24.4006 26.49C25.1806 27.39 26.2106 27.84 27.4906 27.84ZM32.8827 20.61C32.5427 20.51 32.3027 20.38 32.1627 20.22C32.0227 20.06 31.9527 19.85 31.9527 19.59C31.9527 19.19 32.0527 18.85 32.2527 18.57C32.4527 18.29 32.6927 18.15 32.9727 18.15C33.0527 18.15 33.1327 18.16 33.2127 18.18C33.2927 18.18 33.4027 18.2 33.5427 18.24C33.6427 18.26 33.7627 18.28 33.9027 18.3C34.0427 18.32 34.1827 18.33 34.3227 18.33C34.7627 18.33 35.1427 18.25 35.4627 18.09C35.7827 17.91 36.0727 17.6 36.3327 17.16C36.0727 16.64 35.8627 16.11 35.7027 15.57C35.5427 15.03 35.3927 14.41 35.2527 13.71C35.5527 13.37 35.9127 13.11 36.3327 12.93C36.7527 12.73 37.1527 12.63 37.5327 12.63C38.0327 12.63 38.4427 12.87 38.7627 13.35C39.1027 13.83 39.2727 14.45 39.2727 15.21C39.2727 15.43 39.2627 15.64 39.2427 15.84C39.3227 15.82 39.4027 15.8 39.4827 15.78C40.1227 15.64 40.6327 15.55 41.0127 15.51C41.4127 15.45 41.7527 15.42 42.0327 15.42C43.1127 15.42 43.9627 15.83 44.5827 16.65C45.2027 17.45 45.5127 18.54 45.5127 19.92V24.75C45.5127 25.85 45.6527 26.64 45.9327 27.12C46.2327 27.6 46.7027 27.84 47.3427 27.84C47.6227 27.84 47.8327 27.96 47.9727 28.2C48.1327 28.44 48.2127 28.76 48.2127 29.16C48.2127 29.48 48.1227 29.77 47.9427 30.03C47.7827 30.29 47.5127 30.42 47.1327 30.42C44.2327 30.42 42.7827 28.64 42.7827 25.08V20.43C42.7827 19.53 42.6827 18.9 42.4827 18.54C42.2827 18.18 41.9227 18 41.4027 18C41.2227 18 41.0227 18.02 40.8027 18.06C40.5827 18.1 40.1927 18.18 39.6327 18.3C39.1727 18.4 38.7827 18.48 38.4627 18.54C38.0227 19.26 37.4327 19.83 36.6927 20.25C35.9727 20.65 35.1427 20.85 34.2027 20.85C33.7627 20.85 33.3227 20.77 32.8827 20.61ZM47.1291 30.42C46.8691 30.42 46.6591 30.3 46.4991 30.06C46.3391 29.82 46.2591 29.51 46.2591 29.13C46.2591 28.27 46.6191 27.84 47.3391 27.84C47.9191 27.84 48.5091 27.75 49.1091 27.57C49.7091 27.37 50.4091 27.04 51.2091 26.58C50.4291 25.22 50.0391 23.62 50.0391 21.78C50.0391 20.54 50.2691 19.45 50.7291 18.51C51.1891 17.55 51.8291 16.8 52.6491 16.26C53.4691 15.7 54.3991 15.42 55.4391 15.42C56.3191 15.42 57.0991 15.63 57.7791 16.05C58.4591 16.45 58.9891 17.01 59.3691 17.73C59.7491 18.45 59.9391 19.28 59.9391 20.22C59.9391 21.5 59.5591 22.67 58.7991 23.73C58.0591 24.79 56.7991 25.94 55.0191 27.18C55.6591 27.64 56.5191 27.87 57.5991 27.87C58.1791 27.87 58.7591 27.79 59.3391 27.63C59.9191 27.47 60.4791 27.25 61.0191 26.97C61.3191 27.19 61.5391 27.52 61.6791 27.96C61.8391 28.38 61.9191 28.79 61.9191 29.19C61.2591 29.57 60.5591 29.87 59.8191 30.09C59.0791 30.31 58.2991 30.42 57.4791 30.42H57.4491C56.4891 30.42 55.5891 30.26 54.7491 29.94C53.9091 29.62 53.2091 29.18 52.6491 28.62C50.7291 29.82 48.8891 30.42 47.1291 30.42ZM52.6491 21.54C52.6491 23.12 52.9291 24.38 53.4891 25.32C54.7891 24.42 55.7491 23.54 56.3691 22.68C57.0091 21.82 57.3291 21 57.3291 20.22C57.3291 19.5 57.1491 18.94 56.7891 18.54C56.4491 18.12 55.9691 17.91 55.3491 17.91C54.5691 17.91 53.9191 18.26 53.3991 18.96C52.8991 19.66 52.6491 20.52 52.6491 21.54ZM66.6027 30.21C66.1027 30.21 65.6427 30.14 65.2227 30V8.34C65.4627 8.24 65.7027 8.18 65.9427 8.16C66.1827 8.14 66.3827 8.13 66.5427 8.13C66.7627 8.13 66.9927 8.14 67.2327 8.16C67.4927 8.18 67.7427 8.24 67.9827 8.34L75.3327 22.89L82.6527 8.34C82.9127 8.24 83.1527 8.18 83.3727 8.16C83.5927 8.14 83.7827 8.13 83.9427 8.13C84.1627 8.13 84.4027 8.14 84.6627 8.16C84.9227 8.18 85.1627 8.24 85.3827 8.34V30C84.9027 30.14 84.4327 30.21 83.9727 30.21C83.4727 30.21 83.0127 30.14 82.5927 30V14.34L76.5627 26.31C76.2227 26.45 75.8127 26.52 75.3327 26.52C74.8527 26.52 74.4327 26.45 74.0727 26.31L68.0127 14.31V30C67.5327 30.14 67.0627 30.21 66.6027 30.21ZM95.7648 30.42C94.5048 30.42 93.3948 30.12 92.4348 29.52C91.4948 28.92 90.7548 28.08 90.2148 27C89.6948 25.92 89.4348 24.68 89.4348 23.28C89.4348 21.76 89.7348 20.41 90.3348 19.23C90.9348 18.05 91.7448 17.12 92.7648 16.44C93.8048 15.76 94.9848 15.42 96.3048 15.42C97.0048 15.42 97.6948 15.56 98.3748 15.84C99.0548 16.1 99.6248 16.46 100.085 16.92V15.69C100.265 15.63 100.475 15.58 100.715 15.54C100.955 15.5 101.205 15.48 101.465 15.48C101.945 15.48 102.395 15.55 102.815 15.69V24.75C102.815 25.85 102.955 26.64 103.235 27.12C103.535 27.6 104.005 27.84 104.645 27.84C104.925 27.84 105.135 27.96 105.275 28.2C105.435 28.44 105.515 28.76 105.515 29.16C105.515 29.48 105.425 29.77 105.245 30.03C105.085 30.29 104.815 30.42 104.435 30.42C102.535 30.42 101.255 29.64 100.595 28.08C100.015 28.82 99.3148 29.4 98.4948 29.82C97.6748 30.22 96.7648 30.42 95.7648 30.42ZM92.2248 23.28C92.2248 24.7 92.5448 25.82 93.1848 26.64C93.8448 27.44 94.7448 27.84 95.8848 27.84C97.1448 27.84 98.1548 27.41 98.9148 26.55C99.6948 25.69 100.085 24.56 100.085 23.16V19.8C99.6848 19.26 99.1748 18.83 98.5548 18.51C97.9348 18.17 97.2948 18 96.6348 18C95.7748 18 95.0148 18.23 94.3548 18.69C93.6948 19.15 93.1748 19.78 92.7948 20.58C92.4148 21.36 92.2248 22.26 92.2248 23.28ZM104.644 27.84C105.144 27.84 105.714 27.69 106.354 27.39C107.014 27.09 107.654 26.58 108.274 25.86C108.894 25.14 109.404 24.17 109.804 22.95C110.204 21.71 110.404 20.16 110.404 18.3V15.42H108.184C108.044 15.1 107.974 14.7 107.974 14.22C107.974 13.74 108.044 13.34 108.184 13.02H110.404V7.71C110.784 7.57 111.244 7.5 111.784 7.5C112.264 7.5 112.724 7.57 113.164 7.71V13.02H117.634C117.794 13.34 117.874 13.74 117.874 14.22C117.874 14.7 117.794 15.1 117.634 15.42H113.164V21.63C113.164 23.63 113.464 25.17 114.064 26.25C114.684 27.31 115.554 27.84 116.674 27.84C117.254 27.84 117.544 28.28 117.544 29.16C117.544 29.54 117.444 29.84 117.244 30.06C117.064 30.3 116.804 30.42 116.464 30.42C115.164 30.42 114.064 30.05 113.164 29.31C112.284 28.57 111.634 27.54 111.214 26.22C110.374 27.66 109.344 28.72 108.124 29.4C106.904 30.08 105.674 30.42 104.434 30.42C104.174 30.42 103.964 30.29 103.804 30.03C103.644 29.79 103.564 29.49 103.564 29.13C103.564 28.75 103.654 28.44 103.834 28.2C104.014 27.96 104.284 27.84 104.644 27.84ZM116.685 27.84C117.325 27.84 117.955 27.53 118.575 26.91C119.215 26.29 119.765 25.45 120.225 24.39C120.145 23.93 120.105 23.46 120.105 22.98C120.105 21.5 120.385 20.2 120.945 19.08C121.505 17.94 122.275 17.05 123.255 16.41C124.255 15.75 125.395 15.42 126.675 15.42C127.635 15.42 128.505 15.61 129.285 15.99C130.085 16.35 130.735 16.88 131.235 17.58C130.995 18.4 130.415 18.99 129.495 19.35C128.835 18.45 127.925 18 126.765 18C125.605 18 124.665 18.44 123.945 19.32C123.245 20.18 122.895 21.35 122.895 22.83C122.895 24.35 123.335 25.57 124.215 26.49C125.115 27.41 126.385 27.87 128.025 27.87C128.285 27.87 128.495 28 128.655 28.26C128.835 28.5 128.925 28.81 128.925 29.19C128.925 29.57 128.825 29.87 128.625 30.09C128.445 30.31 128.185 30.42 127.845 30.42C126.425 30.42 125.165 30.16 124.065 29.64C122.965 29.12 122.085 28.39 121.425 27.45C120.185 29.43 118.535 30.42 116.475 30.42C116.215 30.42 116.005 30.3 115.845 30.06C115.685 29.82 115.605 29.51 115.605 29.13C115.605 28.27 115.965 27.84 116.685 27.84ZM127.861 30.42C127.601 30.42 127.391 30.3 127.231 30.06C127.051 29.82 126.961 29.51 126.961 29.13C126.961 28.29 127.331 27.87 128.071 27.87C129.511 27.87 130.831 27.37 132.031 26.37C133.231 25.35 134.301 23.9 135.241 22.02V6.63C135.241 4.63 135.661 3.09 136.501 2.01C137.361 0.929999 138.601 0.399998 140.221 0.419998C141.701 0.439998 142.851 0.999998 143.671 2.1C144.511 3.2 144.931 4.63 144.931 6.39C144.931 9.31 144.051 12.56 142.291 16.14C142.431 16.12 142.571 16.11 142.711 16.11C144.211 16.11 145.401 16.64 146.281 17.7C147.181 18.76 147.631 20.18 147.631 21.96V24.54C147.631 25.7 147.771 26.54 148.051 27.06C148.351 27.58 148.841 27.84 149.521 27.84C149.741 27.84 149.981 27.79 150.241 27.69C150.501 27.59 150.771 27.44 151.051 27.24C151.391 27.4 151.671 27.68 151.891 28.08C152.111 28.46 152.211 28.84 152.191 29.22C151.871 29.58 151.461 29.87 150.961 30.09C150.461 30.31 149.921 30.42 149.341 30.42C147.901 30.42 146.791 29.96 146.011 29.04C145.251 28.1 144.871 26.78 144.871 25.08V21.9C144.871 20.88 144.641 20.09 144.181 19.53C143.741 18.95 143.111 18.66 142.291 18.66C141.491 18.66 140.771 18.93 140.131 19.47C139.491 19.99 138.981 20.71 138.601 21.63C138.221 22.55 138.021 23.61 138.001 24.81V30C137.801 30.06 137.581 30.11 137.341 30.15C137.101 30.19 136.871 30.21 136.651 30.21C136.191 30.21 135.721 30.14 135.241 30V26.64C134.261 27.92 133.131 28.87 131.851 29.49C130.571 30.11 129.241 30.42 127.861 30.42ZM137.911 6.6V18.42C139.311 16.3 140.381 14.2 141.121 12.12C141.881 10.04 142.261 8.12 142.261 6.36C142.261 5.24 142.071 4.39 141.691 3.81C141.331 3.21 140.801 2.91 140.101 2.91C138.641 2.91 137.911 4.14 137.911 6.6Z" fill="#303030"/>
</svg>
