<svg width="31" height="153" viewBox="0 0 31 153" fill="none" xmlns="http://www.w3.org/2000/svg">
<path d="M30.42 142.54C30.42 144.58 29.97 146.34 29.07 147.82C28.17 149.28 26.91 150.4 25.29 151.18C23.67 151.96 21.77 152.35 19.59 152.35C17.27 152.35 15.24 151.93 13.5 151.09C11.74 150.23 10.37 149.04 9.39 147.52C8.41 146 7.92 144.26 7.92 142.3C7.92 140.74 8.24 139.32 8.88 138.04C9.5 136.74 10.37 135.69 11.49 134.89C11.85 134.99 12.22 135.25 12.6 135.67C12.98 136.07 13.23 136.47 13.35 136.87C12.41 137.59 11.72 138.41 11.28 139.33C10.84 140.25 10.62 141.24 10.62 142.3C10.62 143.72 10.99 144.97 11.73 146.05C12.47 147.13 13.5 147.97 14.82 148.57C16.14 149.17 17.68 149.47 19.44 149.47C21.1 149.47 22.55 149.2 23.79 148.66C25.03 148.1 26 147.29 26.7 146.23C27.38 145.15 27.72 143.84 27.72 142.3C27.72 140.96 27.45 139.8 26.91 138.82C26.37 137.84 25.61 136.95 24.63 136.15C24.75 135.77 24.97 135.38 25.29 134.98C25.61 134.58 25.93 134.3 26.25 134.14C27.61 135.06 28.65 136.25 29.37 137.71C30.07 139.15 30.42 140.76 30.42 142.54ZM30.42 125.479C30.42 126.839 30.1 128.059 29.46 129.139C28.8 130.199 27.9 131.039 26.76 131.659C25.62 132.259 24.33 132.559 22.89 132.559C21.45 132.559 20.17 132.249 19.05 131.629C17.93 131.009 17.05 130.169 16.41 129.109C15.75 128.029 15.42 126.819 15.42 125.479C15.42 124.139 15.75 122.939 16.41 121.879C17.05 120.819 17.93 119.989 19.05 119.389C20.17 118.769 21.45 118.459 22.89 118.459C24.33 118.459 25.62 118.769 26.76 119.389C27.9 119.989 28.8 120.819 29.46 121.879C30.1 122.919 30.42 124.119 30.42 125.479ZM27.84 125.509C27.84 124.229 27.39 123.209 26.49 122.449C25.59 121.669 24.39 121.279 22.89 121.279C22.15 121.279 21.47 121.389 20.85 121.609C20.81 122.809 20.57 123.899 20.13 124.879C19.69 125.839 19.09 126.599 18.33 127.159C18.67 127.959 19.25 128.589 20.07 129.049C20.87 129.509 21.83 129.739 22.95 129.739C24.41 129.739 25.59 129.359 26.49 128.599C27.39 127.819 27.84 126.789 27.84 125.509ZM20.61 120.117C20.51 120.457 20.38 120.697 20.22 120.837C20.06 120.977 19.85 121.047 19.59 121.047C19.19 121.047 18.85 120.947 18.57 120.747C18.29 120.547 18.15 120.307 18.15 120.027C18.15 119.947 18.16 119.867 18.18 119.787C18.18 119.707 18.2 119.597 18.24 119.457C18.26 119.357 18.28 119.237 18.3 119.097C18.32 118.957 18.33 118.817 18.33 118.677C18.33 118.237 18.25 117.857 18.09 117.537C17.91 117.217 17.6 116.927 17.16 116.667C16.64 116.927 16.11 117.137 15.57 117.297C15.03 117.457 14.41 117.607 13.71 117.747C13.37 117.447 13.11 117.087 12.93 116.667C12.73 116.247 12.63 115.847 12.63 115.467C12.63 114.967 12.87 114.557 13.35 114.237C13.83 113.897 14.45 113.727 15.21 113.727C15.43 113.727 15.64 113.737 15.84 113.757C15.82 113.677 15.8 113.597 15.78 113.517C15.64 112.877 15.55 112.367 15.51 111.987C15.45 111.587 15.42 111.247 15.42 110.967C15.42 109.887 15.83 109.037 16.65 108.417C17.45 107.797 18.54 107.487 19.92 107.487H24.75C25.85 107.487 26.64 107.347 27.12 107.067C27.6 106.767 27.84 106.297 27.84 105.657C27.84 105.377 27.96 105.167 28.2 105.027C28.44 104.867 28.76 104.787 29.16 104.787C29.48 104.787 29.77 104.877 30.03 105.057C30.29 105.217 30.42 105.487 30.42 105.867C30.42 108.767 28.64 110.217 25.08 110.217H20.43C19.53 110.217 18.9 110.317 18.54 110.517C18.18 110.717 18 111.077 18 111.597C18 111.777 18.02 111.977 18.06 112.197C18.1 112.417 18.18 112.807 18.3 113.367C18.4 113.827 18.48 114.217 18.54 114.537C19.26 114.977 19.83 115.567 20.25 116.307C20.65 117.027 20.85 117.857 20.85 118.797C20.85 119.237 20.77 119.677 20.61 120.117ZM30.42 105.871C30.42 106.131 30.3 106.341 30.06 106.501C29.82 106.661 29.51 106.741 29.13 106.741C28.27 106.741 27.84 106.381 27.84 105.661C27.84 105.081 27.75 104.491 27.57 103.891C27.37 103.291 27.04 102.591 26.58 101.791C25.22 102.571 23.62 102.961 21.78 102.961C20.54 102.961 19.45 102.731 18.51 102.271C17.55 101.811 16.8 101.171 16.26 100.351C15.7 99.5309 15.42 98.6009 15.42 97.5609C15.42 96.6809 15.63 95.9009 16.05 95.2209C16.45 94.5409 17.01 94.0109 17.73 93.6309C18.45 93.2509 19.28 93.0609 20.22 93.0609C21.5 93.0609 22.67 93.4409 23.73 94.2009C24.79 94.9409 25.94 96.2009 27.18 97.9809C27.64 97.3409 27.87 96.4809 27.87 95.4009C27.87 94.8209 27.79 94.2409 27.63 93.6609C27.47 93.0809 27.25 92.5209 26.97 91.9809C27.19 91.6809 27.52 91.4609 27.96 91.3209C28.38 91.1609 28.79 91.0809 29.19 91.0809C29.57 91.7409 29.87 92.4409 30.09 93.1809C30.31 93.9209 30.42 94.7009 30.42 95.5209V95.5509C30.42 96.5109 30.26 97.4109 29.94 98.2509C29.62 99.0909 29.18 99.7909 28.62 100.351C29.82 102.271 30.42 104.111 30.42 105.871ZM21.54 100.351C23.12 100.351 24.38 100.071 25.32 99.5109C24.42 98.2109 23.54 97.2509 22.68 96.6309C21.82 95.9909 21 95.6709 20.22 95.6709C19.5 95.6709 18.94 95.8509 18.54 96.2109C18.12 96.5509 17.91 97.0309 17.91 97.6509C17.91 98.4309 18.26 99.0809 18.96 99.6009C19.66 100.101 20.52 100.351 21.54 100.351ZM30.21 86.3973C30.21 86.8973 30.14 87.3573 30 87.7773H8.34C8.24 87.5373 8.18 87.2973 8.16 87.0573C8.14 86.8173 8.13 86.6173 8.13 86.4573C8.13 86.2373 8.14 86.0073 8.16 85.7673C8.18 85.5073 8.24 85.2573 8.34 85.0173L22.89 77.6673L8.34 70.3473C8.24 70.0873 8.18 69.8473 8.16 69.6273C8.14 69.4073 8.13 69.2173 8.13 69.0573C8.13 68.8373 8.14 68.5973 8.16 68.3373C8.18 68.0773 8.24 67.8373 8.34 67.6173H30C30.14 68.0973 30.21 68.5673 30.21 69.0273C30.21 69.5273 30.14 69.9873 30 70.4073H14.34L26.31 76.4373C26.45 76.7773 26.52 77.1873 26.52 77.6673C26.52 78.1473 26.45 78.5673 26.31 78.9273L14.31 84.9873H30C30.14 85.4673 30.21 85.9373 30.21 86.3973ZM30.42 57.2352C30.42 58.4952 30.12 59.6052 29.52 60.5652C28.92 61.5052 28.08 62.2452 27 62.7852C25.92 63.3052 24.68 63.5652 23.28 63.5652C21.76 63.5652 20.41 63.2652 19.23 62.6652C18.05 62.0652 17.12 61.2552 16.44 60.2352C15.76 59.1952 15.42 58.0152 15.42 56.6952C15.42 55.9952 15.56 55.3052 15.84 54.6252C16.1 53.9452 16.46 53.3752 16.92 52.9152H15.69C15.63 52.7352 15.58 52.5252 15.54 52.2852C15.5 52.0452 15.48 51.7952 15.48 51.5352C15.48 51.0552 15.55 50.6052 15.69 50.1852H24.75C25.85 50.1852 26.64 50.0452 27.12 49.7652C27.6 49.4652 27.84 48.9952 27.84 48.3552C27.84 48.0752 27.96 47.8652 28.2 47.7252C28.44 47.5652 28.76 47.4852 29.16 47.4852C29.48 47.4852 29.77 47.5752 30.03 47.7552C30.29 47.9152 30.42 48.1852 30.42 48.5652C30.42 50.4652 29.64 51.7452 28.08 52.4052C28.82 52.9852 29.4 53.6852 29.82 54.5052C30.22 55.3252 30.42 56.2352 30.42 57.2352ZM23.28 60.7752C24.7 60.7752 25.82 60.4552 26.64 59.8152C27.44 59.1552 27.84 58.2552 27.84 57.1152C27.84 55.8552 27.41 54.8452 26.55 54.0852C25.69 53.3052 24.56 52.9152 23.16 52.9152H19.8C19.26 53.3152 18.83 53.8252 18.51 54.4452C18.17 55.0652 18 55.7052 18 56.3652C18 57.2252 18.23 57.9852 18.69 58.6452C19.15 59.3052 19.78 59.8252 20.58 60.2052C21.36 60.5852 22.26 60.7752 23.28 60.7752ZM27.84 48.3562C27.84 47.8562 27.69 47.2862 27.39 46.6462C27.09 45.9862 26.58 45.3462 25.86 44.7262C25.14 44.1062 24.17 43.5962 22.95 43.1962C21.71 42.7962 20.16 42.5962 18.3 42.5962H15.42V44.8162C15.1 44.9562 14.7 45.0262 14.22 45.0262C13.74 45.0262 13.34 44.9562 13.02 44.8162V42.5962H7.71C7.57 42.2162 7.5 41.7562 7.5 41.2162C7.5 40.7362 7.57 40.2762 7.71 39.8362H13.02V35.3662C13.34 35.2062 13.74 35.1262 14.22 35.1262C14.7 35.1262 15.1 35.2062 15.42 35.3662V39.8362H21.63C23.63 39.8362 25.17 39.5362 26.25 38.9362C27.31 38.3162 27.84 37.4462 27.84 36.3262C27.84 35.7462 28.28 35.4562 29.16 35.4562C29.54 35.4562 29.84 35.5562 30.06 35.7562C30.3 35.9362 30.42 36.1962 30.42 36.5362C30.42 37.8362 30.05 38.9362 29.31 39.8362C28.57 40.7162 27.54 41.3662 26.22 41.7862C27.66 42.6262 28.72 43.6562 29.4 44.8762C30.08 46.0962 30.42 47.3262 30.42 48.5662C30.42 48.8262 30.29 49.0362 30.03 49.1962C29.79 49.3562 29.49 49.4362 29.13 49.4362C28.75 49.4362 28.44 49.3462 28.2 49.1662C27.96 48.9862 27.84 48.7162 27.84 48.3562ZM27.84 36.3152C27.84 35.6752 27.53 35.0452 26.91 34.4252C26.29 33.7852 25.45 33.2352 24.39 32.7752C23.93 32.8552 23.46 32.8952 22.98 32.8952C21.5 32.8952 20.2 32.6152 19.08 32.0552C17.94 31.4952 17.05 30.7252 16.41 29.7452C15.75 28.7452 15.42 27.6052 15.42 26.3252C15.42 25.3652 15.61 24.4952 15.99 23.7152C16.35 22.9152 16.88 22.2652 17.58 21.7652C18.4 22.0052 18.99 22.5852 19.35 23.5052C18.45 24.1652 18 25.0752 18 26.2352C18 27.3952 18.44 28.3352 19.32 29.0552C20.18 29.7552 21.35 30.1052 22.83 30.1052C24.35 30.1052 25.57 29.6652 26.49 28.7852C27.41 27.8852 27.87 26.6152 27.87 24.9752C27.87 24.7152 28 24.5052 28.26 24.3452C28.5 24.1652 28.81 24.0752 29.19 24.0752C29.57 24.0752 29.87 24.1752 30.09 24.3752C30.31 24.5552 30.42 24.8152 30.42 25.1552C30.42 26.5752 30.16 27.8352 29.64 28.9352C29.12 30.0352 28.39 30.9152 27.45 31.5752C29.43 32.8152 30.42 34.4652 30.42 36.5252C30.42 36.7852 30.3 36.9952 30.06 37.1552C29.82 37.3152 29.51 37.3952 29.13 37.3952C28.27 37.3952 27.84 37.0352 27.84 36.3152ZM30.42 25.139C30.42 25.399 30.3 25.609 30.06 25.769C29.82 25.949 29.51 26.039 29.13 26.039C28.29 26.039 27.87 25.669 27.87 24.929C27.87 23.489 27.37 22.169 26.37 20.969C25.35 19.769 23.9 18.699 22.02 17.759H6.63C4.63 17.759 3.09 17.339 2.01 16.499C0.929999 15.639 0.399998 14.399 0.419998 12.779C0.439998 11.299 0.999998 10.149 2.1 9.32898C3.2 8.48898 4.63 8.06898 6.39 8.06898C9.31 8.06898 12.56 8.94898 16.14 10.709C16.12 10.569 16.11 10.429 16.11 10.289C16.11 8.78898 16.64 7.59898 17.7 6.71898C18.76 5.81898 20.18 5.36898 21.96 5.36898H24.54C25.7 5.36898 26.54 5.22898 27.06 4.94898C27.58 4.64898 27.84 4.15898 27.84 3.47898C27.84 3.25898 27.79 3.01898 27.69 2.75898C27.59 2.49898 27.44 2.22898 27.24 1.94898C27.4 1.60898 27.68 1.32898 28.08 1.10898C28.46 0.888983 28.84 0.788983 29.22 0.808983C29.58 1.12898 29.87 1.53898 30.09 2.03898C30.31 2.53898 30.42 3.07898 30.42 3.65898C30.42 5.09898 29.96 6.20898 29.04 6.98898C28.1 7.74898 26.78 8.12898 25.08 8.12898H21.9C20.88 8.12898 20.09 8.35898 19.53 8.81898C18.95 9.25898 18.66 9.88898 18.66 10.709C18.66 11.509 18.93 12.229 19.47 12.869C19.99 13.509 20.71 14.019 21.63 14.399C22.55 14.779 23.61 14.979 24.81 14.999H30C30.06 15.199 30.11 15.419 30.15 15.659C30.19 15.899 30.21 16.129 30.21 16.349C30.21 16.809 30.14 17.279 30 17.759H26.64C27.92 18.739 28.87 19.869 29.49 21.149C30.11 22.429 30.42 23.759 30.42 25.139ZM6.6 15.089H18.42C16.3 13.689 14.2 12.619 12.12 11.879C10.04 11.119 8.12 10.739 6.36 10.739C5.24 10.739 4.39 10.929 3.81 11.309C3.21 11.669 2.91 12.199 2.91 12.899C2.91 14.359 4.14 15.089 6.6 15.089Z" fill="#303030"/>
</svg>
