<svg width="122" height="31" viewBox="0 0 122 31" fill="none" xmlns="http://www.w3.org/2000/svg">
<path d="M1.38 30.21C0.88 30.21 0.42 30.14 4.47035e-08 30V8.34C0.24 8.24 0.48 8.18 0.72 8.16C0.96 8.14 1.16 8.13 1.32 8.13C1.54 8.13 1.77 8.14 2.01 8.16C2.27 8.18 2.52 8.24 2.76 8.34L10.11 22.89L17.43 8.34C17.69 8.24 17.93 8.18 18.15 8.16C18.37 8.14 18.56 8.13 18.72 8.13C18.94 8.13 19.18 8.14 19.44 8.16C19.7 8.18 19.94 8.24 20.16 8.34V30C19.68 30.14 19.21 30.21 18.75 30.21C18.25 30.21 17.79 30.14 17.37 30V14.34L11.34 26.31C11 26.45 10.59 26.52 10.11 26.52C9.63 26.52 9.21 26.45 8.85 26.31L2.79 14.31V30C2.31 30.14 1.84 30.21 1.38 30.21ZM30.5421 30.42C29.2821 30.42 28.1721 30.12 27.2121 29.52C26.2721 28.92 25.5321 28.08 24.9921 27C24.4721 25.92 24.2121 24.68 24.2121 23.28C24.2121 21.76 24.5121 20.41 25.1121 19.23C25.7121 18.05 26.5221 17.12 27.5421 16.44C28.5821 15.76 29.7621 15.42 31.0821 15.42C31.7821 15.42 32.4721 15.56 33.1521 15.84C33.8321 16.1 34.4021 16.46 34.8621 16.92V15.69C35.0421 15.63 35.2521 15.58 35.4921 15.54C35.7321 15.5 35.9821 15.48 36.2421 15.48C36.7221 15.48 37.1721 15.55 37.5921 15.69V24.75C37.5921 25.85 37.7321 26.64 38.0121 27.12C38.3121 27.6 38.7821 27.84 39.4221 27.84C39.7021 27.84 39.9121 27.96 40.0521 28.2C40.2121 28.44 40.2921 28.76 40.2921 29.16C40.2921 29.48 40.2021 29.77 40.0221 30.03C39.8621 30.29 39.5921 30.42 39.2121 30.42C37.3121 30.42 36.0321 29.64 35.3721 28.08C34.7921 28.82 34.0921 29.4 33.2721 29.82C32.4521 30.22 31.5421 30.42 30.5421 30.42ZM27.0021 23.28C27.0021 24.7 27.3221 25.82 27.9621 26.64C28.6221 27.44 29.5221 27.84 30.6621 27.84C31.9221 27.84 32.9321 27.41 33.6921 26.55C34.4721 25.69 34.8621 24.56 34.8621 23.16V19.8C34.4621 19.26 33.9521 18.83 33.3321 18.51C32.7121 18.17 32.0721 18 31.4121 18C30.5521 18 29.7921 18.23 29.1321 18.69C28.4721 19.15 27.9521 19.78 27.5721 20.58C27.1921 21.36 27.0021 22.26 27.0021 23.28ZM39.4212 27.84C39.9212 27.84 40.4912 27.69 41.1312 27.39C41.7912 27.09 42.4312 26.58 43.0512 25.86C43.6712 25.14 44.1812 24.17 44.5812 22.95C44.9812 21.71 45.1812 20.16 45.1812 18.3V15.42H42.9612C42.8212 15.1 42.7512 14.7 42.7512 14.22C42.7512 13.74 42.8212 13.34 42.9612 13.02H45.1812V7.71C45.5612 7.57 46.0212 7.5 46.5612 7.5C47.0412 7.5 47.5012 7.57 47.9412 7.71V13.02H52.4112C52.5712 13.34 52.6512 13.74 52.6512 14.22C52.6512 14.7 52.5712 15.1 52.4112 15.42H47.9412V21.63C47.9412 23.63 48.2412 25.17 48.8412 26.25C49.4612 27.31 50.3312 27.84 51.4512 27.84C52.0312 27.84 52.3212 28.28 52.3212 29.16C52.3212 29.54 52.2212 29.84 52.0212 30.06C51.8412 30.3 51.5812 30.42 51.2412 30.42C49.9412 30.42 48.8412 30.05 47.9412 29.31C47.0612 28.57 46.4112 27.54 45.9912 26.22C45.1512 27.66 44.1212 28.72 42.9012 29.4C41.6812 30.08 40.4512 30.42 39.2112 30.42C38.9512 30.42 38.7412 30.29 38.5812 30.03C38.4212 29.79 38.3412 29.49 38.3412 29.13C38.3412 28.75 38.4312 28.44 38.6112 28.2C38.7912 27.96 39.0612 27.84 39.4212 27.84ZM51.4622 27.84C52.1022 27.84 52.7322 27.53 53.3522 26.91C53.9922 26.29 54.5422 25.45 55.0022 24.39C54.9222 23.93 54.8822 23.46 54.8822 22.98C54.8822 21.5 55.1622 20.2 55.7222 19.08C56.2822 17.94 57.0522 17.05 58.0322 16.41C59.0322 15.75 60.1722 15.42 61.4522 15.42C62.4122 15.42 63.2822 15.61 64.0622 15.99C64.8622 16.35 65.5122 16.88 66.0122 17.58C65.7722 18.4 65.1922 18.99 64.2722 19.35C63.6122 18.45 62.7022 18 61.5422 18C60.3822 18 59.4422 18.44 58.7222 19.32C58.0222 20.18 57.6722 21.35 57.6722 22.83C57.6722 24.35 58.1122 25.57 58.9922 26.49C59.8922 27.41 61.1622 27.87 62.8022 27.87C63.0622 27.87 63.2722 28 63.4322 28.26C63.6122 28.5 63.7022 28.81 63.7022 29.19C63.7022 29.57 63.6022 29.87 63.4022 30.09C63.2222 30.31 62.9622 30.42 62.6222 30.42C61.2022 30.42 59.9422 30.16 58.8422 29.64C57.7422 29.12 56.8622 28.39 56.2022 27.45C54.9622 29.43 53.3122 30.42 51.2522 30.42C50.9922 30.42 50.7822 30.3 50.6222 30.06C50.4622 29.82 50.3822 29.51 50.3822 29.13C50.3822 28.27 50.7422 27.84 51.4622 27.84ZM62.6384 30.42C62.3784 30.42 62.1684 30.3 62.0084 30.06C61.8284 29.82 61.7384 29.51 61.7384 29.13C61.7384 28.29 62.1084 27.87 62.8484 27.87C64.2884 27.87 65.6084 27.37 66.8084 26.37C68.0084 25.35 69.0784 23.9 70.0184 22.02V6.63C70.0184 4.63 70.4384 3.09 71.2784 2.01C72.1384 0.929999 73.3784 0.399998 74.9984 0.419998C76.4784 0.439998 77.6284 0.999998 78.4484 2.1C79.2884 3.2 79.7084 4.63 79.7084 6.39C79.7084 9.31 78.8284 12.56 77.0684 16.14C77.2084 16.12 77.3484 16.11 77.4884 16.11C78.9884 16.11 80.1784 16.64 81.0584 17.7C81.9584 18.76 82.4084 20.18 82.4084 21.96V24.54C82.4084 25.7 82.5484 26.54 82.8284 27.06C83.1284 27.58 83.6184 27.84 84.2984 27.84C84.5184 27.84 84.7584 27.79 85.0184 27.69C85.2784 27.59 85.5484 27.44 85.8284 27.24C86.1684 27.4 86.4484 27.68 86.6684 28.08C86.8884 28.46 86.9884 28.84 86.9684 29.22C86.6484 29.58 86.2384 29.87 85.7384 30.09C85.2384 30.31 84.6984 30.42 84.1184 30.42C82.6784 30.42 81.5684 29.96 80.7884 29.04C80.0284 28.1 79.6484 26.78 79.6484 25.08V21.9C79.6484 20.88 79.4184 20.09 78.9584 19.53C78.5184 18.95 77.8884 18.66 77.0684 18.66C76.2684 18.66 75.5484 18.93 74.9084 19.47C74.2684 19.99 73.7584 20.71 73.3784 21.63C72.9984 22.55 72.7984 23.61 72.7784 24.81V30C72.5784 30.06 72.3584 30.11 72.1184 30.15C71.8784 30.19 71.6484 30.21 71.4284 30.21C70.9684 30.21 70.4984 30.14 70.0184 30V26.64C69.0384 27.92 67.9084 28.87 66.6284 29.49C65.3484 30.11 64.0184 30.42 62.6384 30.42ZM72.6884 6.6V18.42C74.0884 16.3 75.1584 14.2 75.8984 12.12C76.6584 10.04 77.0384 8.12 77.0384 6.36C77.0384 5.24 76.8484 4.39 76.4684 3.81C76.1084 3.21 75.5784 2.91 74.8784 2.91C73.4184 2.91 72.6884 4.14 72.6884 6.6ZM90.8777 30.42C90.3177 30.42 89.8377 30.22 89.4377 29.82C89.0377 29.4 88.8377 28.91 88.8377 28.35C88.8377 27.79 89.0377 27.31 89.4377 26.91C89.8377 26.51 90.3177 26.31 90.8777 26.31C91.4377 26.31 91.9177 26.51 92.3177 26.91C92.7377 27.31 92.9477 27.79 92.9477 28.35C92.9477 28.91 92.7377 29.4 92.3177 29.82C91.9177 30.22 91.4377 30.42 90.8777 30.42ZM97.2982 30.12C96.8382 29.96 96.4382 29.72 96.0982 29.4C95.7782 29.06 95.5682 28.66 95.4682 28.2C95.8282 27.86 96.2482 27.43 96.7282 26.91C97.2082 26.39 97.6782 25.77 98.1382 25.05C98.5982 24.31 98.9782 23.48 99.2782 22.56C99.5982 21.64 99.7582 20.61 99.7582 19.47V15.84C99.9382 15.78 100.148 15.73 100.388 15.69C100.628 15.65 100.878 15.63 101.138 15.63C101.598 15.63 102.048 15.7 102.488 15.84V24.75C102.488 25.85 102.628 26.64 102.908 27.12C103.208 27.6 103.678 27.84 104.318 27.84C104.598 27.84 104.808 27.96 104.948 28.2C105.108 28.44 105.188 28.76 105.188 29.16C105.188 29.48 105.098 29.77 104.918 30.03C104.758 30.29 104.488 30.42 104.108 30.42C101.868 30.42 100.488 29.35 99.9682 27.21C99.1282 28.49 98.2382 29.46 97.2982 30.12ZM101.168 11.52C100.608 11.52 100.128 11.32 99.7282 10.92C99.3282 10.52 99.1282 10.04 99.1282 9.48C99.1282 8.88 99.3182 8.39 99.6982 8.01C100.098 7.63 100.588 7.44 101.168 7.44C101.768 7.44 102.258 7.63 102.638 8.01C103.018 8.39 103.208 8.88 103.208 9.48C103.208 10.06 103.008 10.55 102.608 10.95C102.228 11.33 101.748 11.52 101.168 11.52ZM104.314 27.84C104.974 27.84 105.614 27.53 106.234 26.91C106.874 26.27 107.414 25.42 107.854 24.36C107.774 23.88 107.734 23.39 107.734 22.89C107.734 21.45 108.044 20.17 108.664 19.05C109.284 17.93 110.124 17.05 111.184 16.41C112.264 15.75 113.474 15.42 114.814 15.42C116.154 15.42 117.354 15.75 118.414 16.41C119.474 17.05 120.304 17.93 120.904 19.05C121.524 20.17 121.834 21.45 121.834 22.89C121.834 24.33 121.524 25.62 120.904 26.76C120.304 27.9 119.474 28.8 118.414 29.46C117.374 30.1 116.174 30.42 114.814 30.42C113.594 30.42 112.484 30.16 111.484 29.64C110.504 29.1 109.694 28.37 109.054 27.45C107.814 29.43 106.164 30.42 104.104 30.42C103.844 30.42 103.634 30.3 103.474 30.06C103.314 29.82 103.234 29.51 103.234 29.13C103.234 28.27 103.594 27.84 104.314 27.84ZM114.784 27.84C116.064 27.84 117.084 27.39 117.844 26.49C118.624 25.59 119.014 24.39 119.014 22.89C119.014 21.43 118.624 20.25 117.844 19.35C117.084 18.45 116.074 18 114.814 18C113.554 18 112.524 18.46 111.724 19.38C110.944 20.28 110.554 21.47 110.554 22.95C110.554 24.41 110.934 25.59 111.694 26.49C112.474 27.39 113.504 27.84 114.784 27.84Z" fill="#303030"/>
</svg>
