<svg width="447" height="111" viewBox="0 0 447 111" fill="none" xmlns="http://www.w3.org/2000/svg">
<path d="M5.06 109.77C3.22667 109.77 1.54 109.513 1.63913e-07 109V29.58C0.88 29.2133 1.76 28.9933 2.64 28.92C3.52 28.8467 4.25333 28.81 4.84 28.81C5.64667 28.81 6.49 28.8467 7.37 28.92C8.32333 28.9933 9.24 29.2133 10.12 29.58L37.07 82.93L63.91 29.58C64.8633 29.2133 65.7433 28.9933 66.55 28.92C67.3567 28.8467 68.0533 28.81 68.64 28.81C69.4467 28.81 70.3267 28.8467 71.28 28.92C72.2333 28.9933 73.1133 29.2133 73.92 29.58V109C72.16 109.513 70.4367 109.77 68.75 109.77C66.9167 109.77 65.23 109.513 63.69 109V51.58L41.58 95.47C40.3333 95.9833 38.83 96.24 37.07 96.24C35.31 96.24 33.77 95.9833 32.45 95.47L10.23 51.47V109C8.47 109.513 6.74667 109.77 5.06 109.77ZM111.988 110.54C107.368 110.54 103.298 109.44 99.7777 107.24C96.3311 105.04 93.6177 101.96 91.6377 98C89.7311 94.04 88.7777 89.4933 88.7777 84.36C88.7777 78.7867 89.8777 73.8367 92.0777 69.51C94.2777 65.1833 97.2477 61.7733 100.988 59.28C104.801 56.7867 109.128 55.54 113.968 55.54C116.534 55.54 119.064 56.0533 121.558 57.08C124.051 58.0333 126.141 59.3533 127.828 61.04V56.53C128.488 56.31 129.258 56.1267 130.138 55.98C131.018 55.8333 131.934 55.76 132.888 55.76C134.648 55.76 136.298 56.0167 137.838 56.53V89.75C137.838 93.7833 138.351 96.68 139.378 98.44C140.478 100.2 142.201 101.08 144.548 101.08C145.574 101.08 146.344 101.52 146.858 102.4C147.444 103.28 147.738 104.453 147.738 105.92C147.738 107.093 147.408 108.157 146.748 109.11C146.161 110.063 145.171 110.54 143.778 110.54C136.811 110.54 132.118 107.68 129.698 101.96C127.571 104.673 125.004 106.8 121.998 108.34C118.991 109.807 115.654 110.54 111.988 110.54ZM99.0077 84.36C99.0077 89.5667 100.181 93.6733 102.528 96.68C104.948 99.6133 108.248 101.08 112.428 101.08C117.048 101.08 120.751 99.5033 123.538 96.35C126.398 93.1967 127.828 89.0533 127.828 83.92V71.6C126.361 69.62 124.491 68.0433 122.218 66.87C119.944 65.6233 117.598 65 115.178 65C112.024 65 109.238 65.8433 106.818 67.53C104.398 69.2167 102.491 71.5267 101.098 74.46C99.7044 77.32 99.0077 80.62 99.0077 84.36ZM144.544 101.08C146.378 101.08 148.468 100.53 150.814 99.43C153.234 98.33 155.581 96.46 157.854 93.82C160.128 91.18 161.998 87.6233 163.464 83.15C164.931 78.6033 165.664 72.92 165.664 66.1V55.54H157.524C157.011 54.3667 156.754 52.9 156.754 51.14C156.754 49.38 157.011 47.9133 157.524 46.74H165.664V27.27C167.058 26.7567 168.744 26.5 170.724 26.5C172.484 26.5 174.171 26.7567 175.784 27.27V46.74H192.174C192.761 47.9133 193.054 49.38 193.054 51.14C193.054 52.9 192.761 54.3667 192.174 55.54H175.784V78.31C175.784 85.6433 176.884 91.29 179.084 95.25C181.358 99.1367 184.548 101.08 188.654 101.08C190.781 101.08 191.844 102.693 191.844 105.92C191.844 107.313 191.478 108.413 190.744 109.22C190.084 110.1 189.131 110.54 187.884 110.54C183.118 110.54 179.084 109.183 175.784 106.47C172.558 103.757 170.174 99.98 168.634 95.14C165.554 100.42 161.778 104.307 157.304 106.8C152.831 109.293 148.321 110.54 143.774 110.54C142.821 110.54 142.051 110.063 141.464 109.11C140.878 108.23 140.584 107.13 140.584 105.81C140.584 104.417 140.914 103.28 141.574 102.4C142.234 101.52 143.224 101.08 144.544 101.08ZM188.695 101.08C191.041 101.08 193.351 99.9433 195.625 97.67C197.971 95.3967 199.988 92.3167 201.675 88.43C201.381 86.7433 201.235 85.02 201.235 83.26C201.235 77.8333 202.261 73.0667 204.315 68.96C206.368 64.78 209.191 61.5167 212.785 59.17C216.451 56.75 220.631 55.54 225.325 55.54C228.845 55.54 232.035 56.2367 234.895 57.63C237.828 58.95 240.211 60.8933 242.045 63.46C241.165 66.4667 239.038 68.63 235.665 69.95C233.245 66.65 229.908 65 225.655 65C221.401 65 217.955 66.6133 215.315 69.84C212.748 72.9933 211.465 77.2833 211.465 82.71C211.465 88.2833 213.078 92.7567 216.305 96.13C219.605 99.5033 224.261 101.19 230.275 101.19C231.228 101.19 231.998 101.667 232.585 102.62C233.245 103.5 233.575 104.637 233.575 106.03C233.575 107.423 233.208 108.523 232.475 109.33C231.815 110.137 230.861 110.54 229.615 110.54C224.408 110.54 219.788 109.587 215.755 107.68C211.721 105.773 208.495 103.097 206.075 99.65C201.528 106.91 195.478 110.54 187.925 110.54C186.971 110.54 186.201 110.1 185.615 109.22C185.028 108.34 184.735 107.203 184.735 105.81C184.735 102.657 186.055 101.08 188.695 101.08ZM229.674 110.54C228.721 110.54 227.951 110.1 227.364 109.22C226.704 108.34 226.374 107.203 226.374 105.81C226.374 102.73 227.731 101.19 230.444 101.19C235.724 101.19 240.564 99.3567 244.964 95.69C249.364 91.95 253.287 86.6333 256.734 79.74V23.31C256.734 15.9767 258.274 10.33 261.354 6.37C264.507 2.41 269.054 0.466661 274.994 0.539993C280.421 0.613326 284.637 2.66666 287.644 6.69999C290.724 10.7333 292.264 15.9767 292.264 22.43C292.264 33.1367 289.037 45.0533 282.584 58.18C283.097 58.1067 283.611 58.07 284.124 58.07C289.624 58.07 293.987 60.0133 297.214 63.9C300.514 67.7867 302.164 72.9933 302.164 79.52V88.98C302.164 93.2333 302.677 96.3133 303.704 98.22C304.804 100.127 306.601 101.08 309.094 101.08C309.901 101.08 310.781 100.897 311.734 100.53C312.687 100.163 313.677 99.6133 314.704 98.88C315.951 99.4667 316.977 100.493 317.784 101.96C318.591 103.353 318.957 104.747 318.884 106.14C317.711 107.46 316.207 108.523 314.374 109.33C312.541 110.137 310.561 110.54 308.434 110.54C303.154 110.54 299.084 108.853 296.224 105.48C293.437 102.033 292.044 97.1933 292.044 90.96V79.3C292.044 75.56 291.201 72.6633 289.514 70.61C287.901 68.4833 285.591 67.42 282.584 67.42C279.651 67.42 277.011 68.41 274.664 70.39C272.317 72.2967 270.447 74.9367 269.054 78.31C267.661 81.6833 266.927 85.57 266.854 89.97V109C266.121 109.22 265.314 109.403 264.434 109.55C263.554 109.697 262.711 109.77 261.904 109.77C260.217 109.77 258.494 109.513 256.734 109V96.68C253.141 101.373 248.997 104.857 244.304 107.13C239.611 109.403 234.734 110.54 229.674 110.54ZM266.524 23.2V66.54C271.657 58.7667 275.581 51.0667 278.294 43.44C281.081 35.8133 282.474 28.7733 282.474 22.32C282.474 18.2133 281.777 15.0967 280.384 12.97C279.064 10.77 277.121 9.66999 274.554 9.66999C269.201 9.66999 266.524 14.18 266.524 23.2ZM333.218 110.54C331.165 110.54 329.405 109.807 327.938 108.34C326.472 106.8 325.738 105.003 325.738 102.95C325.738 100.897 326.472 99.1367 327.938 97.67C329.405 96.2033 331.165 95.47 333.218 95.47C335.272 95.47 337.032 96.2033 338.498 97.67C340.038 99.1367 340.808 100.897 340.808 102.95C340.808 105.003 340.038 106.8 338.498 108.34C337.032 109.807 335.272 110.54 333.218 110.54ZM356.76 109.44C355.073 108.853 353.607 107.973 352.36 106.8C351.187 105.553 350.417 104.087 350.05 102.4C351.37 101.153 352.91 99.5767 354.67 97.67C356.43 95.7633 358.153 93.49 359.84 90.85C361.527 88.1367 362.92 85.0933 364.02 81.72C365.193 78.3467 365.78 74.57 365.78 70.39V57.08C366.44 56.86 367.21 56.6767 368.09 56.53C368.97 56.3833 369.887 56.31 370.84 56.31C372.527 56.31 374.177 56.5667 375.79 57.08V89.75C375.79 93.7833 376.303 96.68 377.33 98.44C378.43 100.2 380.153 101.08 382.5 101.08C383.527 101.08 384.297 101.52 384.81 102.4C385.397 103.28 385.69 104.453 385.69 105.92C385.69 107.093 385.36 108.157 384.7 109.11C384.113 110.063 383.123 110.54 381.73 110.54C373.517 110.54 368.457 106.617 366.55 98.77C363.47 103.463 360.207 107.02 356.76 109.44ZM370.95 41.24C368.897 41.24 367.137 40.5067 365.67 39.04C364.203 37.5733 363.47 35.8133 363.47 33.76C363.47 31.56 364.167 29.7633 365.56 28.37C367.027 26.9767 368.823 26.28 370.95 26.28C373.15 26.28 374.947 26.9767 376.34 28.37C377.733 29.7633 378.43 31.56 378.43 33.76C378.43 35.8867 377.697 37.6833 376.23 39.15C374.837 40.5433 373.077 41.24 370.95 41.24ZM382.484 101.08C384.904 101.08 387.25 99.9433 389.524 97.67C391.87 95.3233 393.85 92.2067 395.464 88.32C395.17 86.56 395.024 84.7633 395.024 82.93C395.024 77.65 396.16 72.9567 398.434 68.85C400.707 64.7433 403.787 61.5167 407.674 59.17C411.634 56.75 416.07 55.54 420.984 55.54C425.897 55.54 430.297 56.75 434.184 59.17C438.07 61.5167 441.114 64.7433 443.314 68.85C445.587 72.9567 446.724 77.65 446.724 82.93C446.724 88.21 445.587 92.94 443.314 97.12C441.114 101.3 438.07 104.6 434.184 107.02C430.37 109.367 425.97 110.54 420.984 110.54C416.51 110.54 412.44 109.587 408.774 107.68C405.18 105.7 402.21 103.023 399.864 99.65C395.317 106.91 389.267 110.54 381.714 110.54C380.76 110.54 379.99 110.1 379.404 109.22C378.817 108.34 378.524 107.203 378.524 105.81C378.524 102.657 379.844 101.08 382.484 101.08ZM420.874 101.08C425.567 101.08 429.307 99.43 432.094 96.13C434.954 92.83 436.384 88.43 436.384 82.93C436.384 77.5767 434.954 73.25 432.094 69.95C429.307 66.65 425.604 65 420.984 65C416.364 65 412.587 66.6867 409.654 70.06C406.794 73.36 405.364 77.7233 405.364 83.15C405.364 88.5033 406.757 92.83 409.544 96.13C412.404 99.43 416.18 101.08 420.874 101.08Z" fill="url(#paint0_linear_158_1581)"/>
<defs>
<linearGradient id="paint0_linear_158_1581" x1="220" y1="1" x2="220" y2="221" gradientUnits="userSpaceOnUse">
<stop stop-color="#7F67AC" stop-opacity="0.94"/>
<stop offset="1" stop-color="#E3E2E2" stop-opacity="0"/>
</linearGradient>
</defs>
</svg>
